<svg width="312" height="5" viewBox="0 0 312 5" fill="none" xmlns="http://www.w3.org/2000/svg">
<g filter="url(#filter0_i_27_73)">
<mask id="path-1-inside-1_27_73" fill="white">
<path d="M0 2.5C0 3.88071 1.11929 5 2.5 5H309.5C310.881 5 312 3.88071 312 2.5C312 1.11929 310.881 0 309.5 0H2.5C1.11929 0 0 1.11929 0 2.5Z"/>
</mask>
<path d="M2.5 -37H309.5V47H2.5V-37ZM309.5 42H2.5V-42H309.5V42ZM2.5 42C24.3152 42 42 24.3153 42 2.5H-42C-42 -22.0767 -22.0766 -42 2.5 -42V42ZM270 2.5C270 24.3152 287.685 42 309.5 42V-42C334.077 -42 354 -22.0767 354 2.5H270ZM309.5 -37C287.685 -37 270 -19.3153 270 2.5H354C354 27.0767 334.077 47 309.5 47V-37ZM2.5 47C-22.0767 47 -42 27.0767 -42 2.5H42C42 -19.3152 24.3152 -37 2.5 -37V47Z" fill="#29E519" fill-opacity="0.35" mask="url(#path-1-inside-1_27_73)"/>
</g>
<defs>
<filter id="filter0_i_27_73" x="0" y="0" width="312" height="9" filterUnits="userSpaceOnUse" color-interpolation-filters="sRGB">
<feFlood flood-opacity="0" result="BackgroundImageFix"/>
<feBlend mode="normal" in="SourceGraphic" in2="BackgroundImageFix" result="shape"/>
<feColorMatrix in="SourceAlpha" type="matrix" values="0 0 0 0 0 0 0 0 0 0 0 0 0 0 0 0 0 0 127 0" result="hardAlpha"/>
<feOffset dy="4"/>
<feGaussianBlur stdDeviation="2"/>
<feComposite in2="hardAlpha" operator="arithmetic" k2="-1" k3="1"/>
<feColorMatrix type="matrix" values="0 0 0 0 0 0 0 0 0 0 0 0 0 0 0 0 0 0 0.25 0"/>
<feBlend mode="normal" in2="shape" result="effect1_innerShadow_27_73"/>
</filter>
</defs>
</svg>
